<?xml version="1.0" encoding="utf-8"?>
<!-- Generator: Adobe Illustrator 16.0.0, SVG Export Plug-In . SVG Version: 6.00 Build 0)  -->
<!DOCTYPE svg PUBLIC "-//W3C//DTD SVG 1.1//EN" "http://www.w3.org/Graphics/SVG/1.1/DTD/svg11.dtd">
<svg version="1.1" id="Layer_1" xmlns="http://www.w3.org/2000/svg" xmlns:xlink="http://www.w3.org/1999/xlink" x="0px" y="0px"
	 width="35px" height="34.736px" viewBox="0 0 35 34.736" enable-background="new 0 0 35 34.736" xml:space="preserve">
<path fill="#280202" d="M0,34.737h35V0H0V34.737z M25.5,23.368c0,1.101-0.9,2-2,2h-3.035v-5.736h2.114v-2.499h-2.114v-1.306
	c0-0.329,0.121-0.566,0.535-0.566h1.579v-2.822h-1.767c-1.818,0-3.245,1.513-3.245,3.442v1.252h-1.916v2.499h1.916v5.736H11.5
	c-1.1,0-2-0.899-2-2v-12c0-1.101,0.9-2,2-2h12c1.1,0,2,0.899,2,2V23.368z"/>
</svg>
