<?xml version="1.0" encoding="utf-8"?>
<!-- Generator: Adobe Illustrator 16.0.0, SVG Export Plug-In . SVG Version: 6.00 Build 0)  -->
<!DOCTYPE svg PUBLIC "-//W3C//DTD SVG 1.1//EN" "http://www.w3.org/Graphics/SVG/1.1/DTD/svg11.dtd">
<svg version="1.1" id="Layer_1" xmlns="http://www.w3.org/2000/svg" xmlns:xlink="http://www.w3.org/1999/xlink" x="0px" y="0px"
	 width="35px" height="34.738px" viewBox="0 0 35 34.738" enable-background="new 0 0 35 34.738" xml:space="preserve">
<path fill="#280202" d="M23.033,11.192h-1.85c-0.34,0-0.615,0.275-0.615,0.616v1.85c0,0.34,0.275,0.616,0.615,0.616h1.85
	c0.341,0,0.617-0.276,0.617-0.616v-1.85C23.65,11.468,23.374,11.192,23.033,11.192"/>
<path fill="#280202" d="M17.486,20.438c1.702,0,3.083-1.38,3.083-3.082s-1.381-3.082-3.083-3.082s-3.082,1.38-3.082,3.082
	S15.784,20.438,17.486,20.438"/>
<path fill="#280202" d="M22.417,17.355c0,2.725-2.207,4.932-4.931,4.932c-2.723,0-4.93-2.207-4.93-4.932
	c0-0.426,0.06-0.838,0.162-1.233h-1.396v6.78c0,0.34,0.277,0.616,0.617,0.616h11.093c0.342,0,0.616-0.276,0.616-0.616v-6.78h-1.395
	C22.355,16.518,22.417,16.93,22.417,17.355"/>
<path fill="#280202" d="M0,34.738h35V0H0V34.738z M25.499,23.519c0,1.021-0.828,1.851-1.851,1.851H11.322
	c-1.021,0-1.848-0.829-1.848-1.851V11.192c0-1.021,0.827-1.85,1.848-1.85h12.327c1.021,0,1.851,0.828,1.851,1.85V23.519z"/>
</svg>
