<?xml version="1.0" encoding="utf-8"?>
<!-- Generator: Adobe Illustrator 16.0.0, SVG Export Plug-In . SVG Version: 6.00 Build 0)  -->
<!DOCTYPE svg PUBLIC "-//W3C//DTD SVG 1.1//EN" "http://www.w3.org/Graphics/SVG/1.1/DTD/svg11.dtd">
<svg version="1.1" id="Layer_1" xmlns="http://www.w3.org/2000/svg" xmlns:xlink="http://www.w3.org/1999/xlink" x="0px" y="0px"
	 width="35px" height="34.738px" viewBox="0 0 35 34.738" enable-background="new 0 0 35 34.738" xml:space="preserve">
<path fill="#280202" d="M0,34.738h35V0H0V34.738z M23.741,14.206c0.006,0.137,0.01,0.273,0.01,0.411
	c0,4.193-3.192,9.029-9.029,9.029c-1.793,0-3.461-0.525-4.865-1.426c0.248,0.028,0.501,0.045,0.757,0.045
	c1.487,0,2.855-0.509,3.941-1.359c-1.388-0.025-2.56-0.943-2.964-2.204c0.194,0.038,0.392,0.058,0.597,0.058
	c0.289,0,0.57-0.038,0.836-0.11c-1.452-0.292-2.546-1.574-2.546-3.112c0-0.013,0-0.026,0-0.039c0.428,0.237,0.918,0.38,1.438,0.396
	c-0.852-0.569-1.412-1.54-1.412-2.642c0-0.582,0.157-1.127,0.43-1.596c1.565,1.92,3.904,3.184,6.541,3.316
	c-0.054-0.232-0.082-0.475-0.082-0.724c0-1.753,1.421-3.174,3.173-3.174c0.912,0,1.738,0.386,2.316,1.003
	c0.723-0.143,1.401-0.407,2.016-0.77c-0.236,0.74-0.74,1.362-1.396,1.755c0.642-0.076,1.253-0.247,1.822-0.5
	C24.898,13.2,24.361,13.759,23.741,14.206"/>
</svg>
