<svg version="1.1" id="Layer_1" xmlns="http://www.w3.org/2000/svg" xmlns:xlink="http://www.w3.org/1999/xlink" x="0px" y="0px" width="19.677px" height="19.678px" viewBox="0 0 19.677 19.678" enable-background="new 0 0 19.677 19.678" xml:space="preserve">
<path d="M19.384,17.971l-3.217-3.217c1.248-1.556,1.999-3.526,1.999-5.671C18.166,4.075,14.092,0,9.083,0C4.075,0,0,4.075,0,9.083 c0,5.009,4.075,9.084,9.083,9.084c2.145,0,4.115-0.751,5.671-1.999l3.216,3.217c0.195,0.195,0.451,0.293,0.707,0.293 s0.512-0.098,0.707-0.293C19.774,18.994,19.774,18.361,19.384,17.971z M2,9.083C2,5.177,5.177,2,9.083,2 c3.905,0,7.083,3.177,7.083,7.083c0,3.906-3.178,7.084-7.083,7.084C5.177,16.167,2,12.989,2,9.083z"></path>
</svg>